<svg xmlns="http://www.w3.org/2000/svg" version="1.1">
    <text x="0" y="28" font-family="sans-serif" font-size="28" fill="black">HDFS</text>
    <g>
        <rect x="0" y="40" rx="20" ry="20" width="200" height="100" fill="gray"></rect>
        <text x="60" y="100" font-family="sans-serif" font-size="28" fill="white">Block</text>
        <text x="40" y="75" font-family="sans-serif" font-size="16" fill="linen" transform="rotate(-45 40 75)">Byte</text>
        <text x="40" y="135" font-family="sans-serif" font-size="16" fill="linen" transform="rotate(-45 40 135)">Byte</text>
        <text x="90" y="75" font-family="sans-serif" font-size="16" fill="linen" transform="rotate(-45 90 75)">Byte</text>
        <text x="90" y="135" font-family="sans-serif" font-size="16" fill="linen" transform="rotate(-45 90 135)">Byte</text>
        <text x="140" y="75" font-family="sans-serif" font-size="16" fill="linen" transform="rotate(-45 140 75)">Byte</text>
        <text x="140" y="135" font-family="sans-serif" font-size="16" fill="linen" transform="rotate(-45 140 135)">Byte</text>
    </g>
    <g>
        <rect x="210" y="40" rx="20" ry="20" width="200" height="100" fill="gray"></rect>
        <text x="280" y="100" font-family="sans-serif" font-size="28" fill="white">Block</text>
        <text x="250" y="75" font-family="sans-serif" font-size="16" fill="linen" transform="rotate(-45 250 75)">Byte</text>
        <text x="250" y="135" font-family="sans-serif" font-size="16" fill="linen" transform="rotate(-45 250 135)">Byte</text>
        <text x="300" y="75" font-family="sans-serif" font-size="16" fill="linen" transform="rotate(-45 300 75)">Byte</text>
        <text x="300" y="135" font-family="sans-serif" font-size="16" fill="linen" transform="rotate(-45 300 135)">Byte</text>
        <text x="350" y="75" font-family="sans-serif" font-size="16" fill="linen" transform="rotate(-45 350 75)">Byte</text>
        <text x="350" y="135" font-family="sans-serif" font-size="16" fill="linen" transform="rotate(-45 350 135)">Byte</text>
    </g>
    <text x="0" y="200" font-family="sans-serif" font-size="28" fill="black">HBase</text>
    <g>
        <rect x="0" y="212" rx="20" ry="20" width="200" height="100" fill="gray"></rect>
        <text x="50" y="270" font-family="sans-serif" font-size="28" fill="white">Region</text>
        <text x="30" y="245" font-family="sans-serif" font-size="16" fill="linen" transform="rotate(-45 30 245)">Key</text>
        <text x="30" y="305" font-family="sans-serif" font-size="16" fill="linen" transform="rotate(-45 30 305)">Key</text>
        <text x="80" y="245" font-family="sans-serif" font-size="16" fill="linen" transform="rotate(-45 80 245)">Key</text>
        <text x="80" y="305" font-family="sans-serif" font-size="16" fill="linen" transform="rotate(-45 80 305)">Key</text>
        <text x="140" y="245" font-family="sans-serif" font-size="16" fill="linen" transform="rotate(-45 140 245)">Key</text>
        <text x="140" y="305" font-family="sans-serif" font-size="16" fill="linen" transform="rotate(-45 140 305)">Key</text>
    </g>
    <g>
        <rect x="210" y="212" rx="20" ry="20" width="200" height="100" fill="gray"></rect>
        <text x="270" y="270" font-family="sans-serif" font-size="28" fill="white">Region</text>
        <text x="250" y="245" font-family="sans-serif" font-size="16" fill="linen" transform="rotate(-45 250 245)">Key</text>
        <text x="250" y="305" font-family="sans-serif" font-size="16" fill="linen" transform="rotate(-45 250 305)">Key</text>
        <text x="300" y="245" font-family="sans-serif" font-size="16" fill="linen" transform="rotate(-45 300 245)">Key</text>
        <text x="300" y="305" font-family="sans-serif" font-size="16" fill="linen" transform="rotate(-45 300 305)">Key</text>
        <text x="360" y="245" font-family="sans-serif" font-size="16" fill="linen" transform="rotate(-45 360 245)">Key</text>
        <text x="360" y="305" font-family="sans-serif" font-size="16" fill="linen" transform="rotate(-45 360 305)">Key</text>
    </g>
</svg>
